<?xml version="1.0" encoding="UTF-8"?>
<svg width="936px" height="306px" viewBox="0 0 936 306" version="1.1" xmlns="http://www.w3.org/2000/svg" xmlns:xlink="http://www.w3.org/1999/xlink">
    <title>anarchy-dark</title>
    <g id="Page-1" stroke="none" stroke-width="1" fill="none" fill-rule="evenodd">
        <g id="Extra-Large" transform="translate(-492, -654)">
            <g id="anarchy-dark" transform="translate(509, 671)">
                <rect id="Rectangle" stroke="#000000" stroke-width="17" x="-8.5" y="-8.5" width="919" height="289"></rect>
                <g id="Group" transform="translate(45, 60)" fill="#000000" fill-rule="nonzero">
                    <g id="Anarchy-Copy-3">
                        <polygon id="Path" points="143.856574 140.194286 143.856574 1.94558655e-15 164.649025 1.26463126e-14 245.057518 104.184561 245.057518 1.26463126e-14 265.768924 1.26463126e-14 265.768924 140.194286 245.057518 140.194286 164.649025 34.4408654 164.649025 140.194286"></polygon>
                        <polygon id="Shape" points="281.211155 140.194286 281.211155 1.94558655e-15 302.823189 1.26463126e-14 408.812749 140.194286 384.459001 140.194286 302.823189 35.5794411 302.823189 140.194286"></polygon>
                        <polygon id="Shape" transform="translate(63.8008, 70.0971) scale(-1, 1) translate(-63.8008, -70.0971)" points="1.73019191e-13 140.194286 9.02080241e-13 1.94558655e-15 21.6120337 1.26463126e-14 127.601594 140.194286 103.247845 140.194286 21.6120337 35.5794411 21.6120337 140.194286"></polygon>
                        <polygon id="Path" points="322.661355 0.805714286 432.299253 0.805714286 443.386653 18.490232 403.623521 78.1835094 455.139442 140.194286 429.216914 140.194286 379.097089 78.1835094 419.484136 20.6324744 337.43074 20.6324744"></polygon>
                        <polygon id="Path" points="529.912351 21.4915242 529.912351 0.805714286 460.828685 0.805714286 460.828685 141 529.912351 141 529.912351 120.31419 481.692298 120.31419 481.692298 21.4915242"></polygon>
                        <path d="M544.541833,0 L565.443323,0 L565.443323,60.6364873 L628.756574,60.6364873 L628.756574,0 L649.860991,0 C650.31194,0 650.31194,46.7314286 649.860991,140.194286 L628.756574,140.194286 L628.756574,80.7690752 L565.443323,80.7690752 L565.443323,140.194286 L544.541833,140.194286 L544.541833,0 Z" id="Path"></path>
                        <polygon id="Path" transform="translate(740.8207, 70.0971) scale(1, -1) translate(-740.8207, -70.0971)" points="665.641434 0 689.622924 -2.58556213e-14 742.263698 61.3685286 789.622317 1.21386733e-14 816 9.62789882e-15 709.580866 140.194286 682.085324 139.479009 728.367796 80.1836657"></polygon>
                    </g>
                </g>
            </g>
        </g>
    </g>
</svg>