<svg xmlns="http://www.w3.org/2000/svg" viewBox="0 0 3224.118 3194.119"><defs><style>.a{fill:#fff;}</style></defs><g transform="translate(-3692 -2142)"><g transform="translate(4410.858 1728.342)"><g transform="translate(663.374 413.658)"><g transform="translate(0 0)"><path class="a" d="M430.076,168.79a6.35,6.35,0,0,0-.4-2.188,10.986,10.986,0,0,0-4.333-6.121l-61.612-42.829V71.74a11.024,11.024,0,0,0-11.022-11.022H281.831l-60.31-41.929a11.016,11.016,0,0,0-12.555-.022l-60.7,41.951H77.7A11.023,11.023,0,0,0,66.674,71.74v45.372L4.763,159.9a11,11,0,0,0-4.745,8.911c0,.065-.018.126-.018.193L.329,407.942a11.02,11.02,0,0,0,11.022,11.006h.015l408.031-.561A11.023,11.023,0,0,0,430.4,407.351ZM363.734,144.5l35.221,24.478-35.221,24.486ZM215.215,41.251l28,19.466H187.052ZM88.719,82.763h252.97V208.791l-84.934,59.048-34.629-26.862c-.054-.042-.1-.068-.152-.106a11.015,11.015,0,0,0-13.361.106l-34.88,27.056L88.719,209.279ZM66.674,143.909v50.135L30.4,168.977Zm-44.6,46.12,133.383,92.18L22.342,385.459ZM43.608,396.86,215.37,263.633,386.515,396.389ZM275.008,282,408.06,189.5l.269,195.917Z" transform="translate(0 -16.814)"/></g><g transform="translate(129.56 110.038)"><path class="a" d="M314.387,147.713H165.144a11.022,11.022,0,0,0,0,22.045H314.387a11.022,11.022,0,1,0,0-22.045Z" transform="translate(-154.122 -147.713)"/></g><g transform="translate(129.56 167.354)"><path class="a" d="M314.387,215.9H165.144a11.022,11.022,0,1,0,0,22.045H314.387a11.022,11.022,0,1,0,0-22.045Z" transform="translate(-154.122 -215.895)"/></g></g><g transform="translate(628.274 3190.923)"><g transform="translate(435.58 177.873)"><path class="a" d="M458.151,238.221c-19.322-9.66-55.549-9.772-57.082-9.772a8.318,8.318,0,0,0,0,16.636c9.348,0,36.49,1.441,49.642,8.016a8.318,8.318,0,0,0,7.44-14.88Z" transform="translate(-392.751 -228.449)"/></g><g transform="translate(0 0)"><g transform="translate(0 0)"><path class="a" d="M542.449,374.136,508.1,364.32a3.488,3.488,0,0,1-2.519-3.339V349.515a62.508,62.508,0,0,0,7.953-6.522,61.191,61.191,0,0,0,18.729-44.268V282.9l3.322-6.642a53.064,53.064,0,0,0,5.572-23.607V209.788a8.318,8.318,0,0,0-8.318-8.318H452.791A52.847,52.847,0,0,0,400,254.256v.5a44.118,44.118,0,0,0,4.634,19.629l4.26,8.52v13.586a64.9,64.9,0,0,0,26.682,52.475l0,12.018c0,1.853,0,2.621-6.868,4.584l-16.762,4.789L363.463,352.72a8.308,8.308,0,0,0-2.267-6.368L345.7,330.073V302.746c1.638-1.35,3.253-2.736,4.818-4.2a97.624,97.624,0,0,0,30.757-70.969V205.751a96.147,96.147,0,0,0,8.893-40.433V76.384a8.318,8.318,0,0,0-8.318-8.318H257.34a79.557,79.557,0,0,0-79.467,79.467v17.788a96.147,96.147,0,0,0,8.893,40.433V224.53A101.637,101.637,0,0,0,222.342,302.1v27.97l-15.495,16.279a8.308,8.308,0,0,0-2.267,6.368L153.4,371.33a43.617,43.617,0,0,0-10.283,5.388l-8.036-4.018c23.922-10.413,31.5-25.058,31.864-25.785a8.315,8.315,0,0,0,0-7.44c-6-11.993-6.723-33.976-7.306-51.638-.194-5.88-.378-11.435-.73-16.382-2.836-39.9-33.166-69.984-70.552-69.984s-67.717,30.086-70.552,69.984c-.352,4.947-.536,10.5-.73,16.384-.583,17.662-1.311,39.642-7.306,51.635a8.316,8.316,0,0,0,0,7.44c.364.727,7.926,15.343,31.9,25.768l-22.322,11.16A34.818,34.818,0,0,0,0,415.147V476.6a8.318,8.318,0,1,0,16.636,0V415.147a18.265,18.265,0,0,1,10.15-16.425l27.8-13.9,9.669,9.188a34.981,34.981,0,0,0,48.219,0l9.668-9.187,9.063,4.532a43.8,43.8,0,0,0-6.69,23.223V476.6a8.318,8.318,0,1,0,16.636,0v-64.02a27.34,27.34,0,0,1,17.942-25.616l53.957-19.62,22.462,33.694a17.148,17.148,0,0,0,12.624,7.58q.862.085,1.716.084A17.144,17.144,0,0,0,262,403.662l13.7-13.7V476.6a8.318,8.318,0,1,0,16.636,0V389.958l13.7,13.7a17.137,17.137,0,0,0,12.152,5.043q.854,0,1.715-.084a17.148,17.148,0,0,0,12.625-7.58L355,367.347l53.956,19.62a27.341,27.341,0,0,1,17.942,25.616V476.6a8.318,8.318,0,0,0,16.636,0v-64.02a43.971,43.971,0,0,0-12.3-30.433l2.055-.587a45.617,45.617,0,0,0,7.74-2.795l21.237,21.237v76.6a8.318,8.318,0,0,0,16.636,0v-76.6l21.09-21.09a19.78,19.78,0,0,0,3.539,1.405l34.354,9.815A18.442,18.442,0,0,1,551.2,407.793V476.6a8.318,8.318,0,0,0,16.636,0v-68.81A35.152,35.152,0,0,0,542.449,374.136ZM53.362,359.444C37.8,353.846,30,346.382,26.667,342.306a91.688,91.688,0,0,0,4.741-19.917,62.026,62.026,0,0,0,21.954,27.086Zm47.65,22.511a18.355,18.355,0,0,1-25.3,0L67.976,374.6A17.211,17.211,0,0,0,70,366.481v-8.866a61.853,61.853,0,0,0,36.726.006v8.859a17.211,17.211,0,0,0,2.023,8.126ZM88.365,343.771a45.1,45.1,0,0,1-45.044-45.044,8.267,8.267,0,0,0-9.683-8.2c.024-.715.048-1.432.072-2.14.185-5.719.364-11.122.693-15.755,1.062-14.946,7.035-28.718,16.816-38.781a51.681,51.681,0,0,1,74.286,0c9.782,10.064,15.754,23.836,16.816,38.781.328,4.633.508,10.034.7,15.752.017.491.033.989.05,1.484-9.05-13.943-23.026-24.218-41.085-30.021a104.393,104.393,0,0,0-31.638-5.013,8.319,8.319,0,0,0-5.757,2.541L49.581,272.943A8.318,8.318,0,0,0,61.557,284.49l12.488-12.95c10.754.526,45.353,4.549,58.809,34.18A44.935,44.935,0,0,1,88.365,343.771Zm34.994,15.7v-9.92a61.527,61.527,0,0,0,21.96-27.115,91.571,91.571,0,0,0,4.736,19.872C146.743,346.345,138.9,353.876,123.358,359.472ZM203.4,224.529V203.892a8.32,8.32,0,0,0-.827-3.617,79.786,79.786,0,0,1-8.066-34.955V147.534A62.9,62.9,0,0,1,257.34,84.7H373.534v80.619a79.786,79.786,0,0,1-8.066,34.955,8.319,8.319,0,0,0-.827,3.617v23.684a79.854,79.854,0,0,1-25.5,58.832,82.78,82.78,0,0,1-6.386,5.407c-.049.033-.1.07-.143.1a79.978,79.978,0,0,1-53.974,16.1C236.45,305.29,203.4,268.616,203.4,224.529ZM250.237,391.9a.523.523,0,0,1-.464.165.529.529,0,0,1-.423-.254L223.482,353l8.324-8.747,39.244,26.825Zm33.785-32.1-45.044-30.789V313.482a93.654,93.654,0,0,0,38.585,11.139q3.289.213,6.545.212a96.348,96.348,0,0,0,44.959-11.018v15.194Zm34.671,32.013a.529.529,0,0,1-.423.254.513.513,0,0,1-.464-.165l-20.813-20.814,39.244-26.826,8.326,8.747Zm151.885-7.018L451.7,365.917a22.825,22.825,0,0,0,.515-4.941v-3.51a58.323,58.323,0,0,0,16.472,2.91c.641.02,1.277.029,1.915.029a61.785,61.785,0,0,0,18.339-2.774v3.349a19.881,19.881,0,0,0,.6,4.848Zm31.367-53.738a44.705,44.705,0,0,1-32.758,12.694c-24.071-.722-43.653-21.924-43.653-47.26v-15.55a8.31,8.31,0,0,0-.878-3.72l-5.138-10.276a27.4,27.4,0,0,1-2.877-12.19v-.5a36.191,36.191,0,0,1,36.151-36.151h71.725v34.547a36.344,36.344,0,0,1-3.816,16.168l-4.2,8.4a8.313,8.313,0,0,0-.878,3.72v17.787A44.69,44.69,0,0,1,501.945,331.055Z" transform="translate(0 -68.066)"/></g></g><g transform="translate(515.622 346.853)"><path class="a" d="M473.241,380.814a8.318,8.318,0,0,0-8.318,8.318v53.362a8.318,8.318,0,0,0,16.636,0V389.132A8.319,8.319,0,0,0,473.241,380.814Z" transform="translate(-464.923 -380.814)"/></g><g transform="translate(35.575 357.848)"><path class="a" d="M40.395,390.728a8.318,8.318,0,0,0-8.318,8.318v42.367a8.318,8.318,0,1,0,16.636,0V399.046A8.319,8.319,0,0,0,40.395,390.728Z" transform="translate(-32.077 -390.728)"/></g><g transform="translate(213.447 75.567)"><path class="a" d="M331.171,160.9c-31.459-31.459-97.28-25.445-124.121-21.4a17.076,17.076,0,0,0-14.59,17.012v19.162a8.318,8.318,0,1,0,16.636,0V156.515a.55.55,0,0,1,.435-.562c10.721-1.616,32-4.109,54.038-2.64,25.938,1.727,44.726,8.238,55.839,19.353A8.317,8.317,0,1,0,331.171,160.9Z" transform="translate(-192.46 -136.203)"/></g><g transform="translate(177.874 364.641)"><path class="a" d="M168.7,396.853a8.318,8.318,0,0,0-8.318,8.318v35.575a8.318,8.318,0,0,0,16.636,0V405.171A8.319,8.319,0,0,0,168.7,396.853Z" transform="translate(-160.384 -396.853)"/></g><g transform="translate(373.534 364.641)"><path class="a" d="M345.124,396.853a8.318,8.318,0,0,0-8.318,8.318v35.575a8.318,8.318,0,1,0,16.636,0V405.171A8.319,8.319,0,0,0,345.124,396.853Z" transform="translate(-336.806 -396.853)"/></g></g><g transform="translate(-458.7 2708.774)"><g transform="translate(0 126.055)"><path class="a" d="M421.71,443.494H402.858V169.76a23.133,23.133,0,0,0-23.106-23.106H337.614a23.133,23.133,0,0,0-23.106,23.106V443.494h-47.87V293.783a23.132,23.132,0,0,0-23.106-23.106H201.393a23.133,23.133,0,0,0-23.106,23.106V443.494h-47.87V365.96a23.133,23.133,0,0,0-23.106-23.106H65.172A23.133,23.133,0,0,0,42.066,365.96v77.534H22.2a8.6,8.6,0,1,0,0,17.191H421.71a8.6,8.6,0,1,0,0-17.191Zm-308.486,0H59.256V365.96a5.922,5.922,0,0,1,5.915-5.915h42.138a5.922,5.922,0,0,1,5.915,5.915v77.534Zm136.221,0H195.477V293.783a5.922,5.922,0,0,1,5.915-5.915H243.53a5.922,5.922,0,0,1,5.915,5.915Zm136.221,0H331.7V169.76a5.922,5.922,0,0,1,5.915-5.915h42.138a5.922,5.922,0,0,1,5.915,5.915V443.494Z" transform="translate(-13.601 -146.654)"/></g><g transform="translate(73.702)"><path class="a" d="M414.881,9.039A8.565,8.565,0,0,0,405.863.021c-.138-.006-.275-.021-.416-.021h-52a8.6,8.6,0,0,0,0,17.191h32.11l-84.972,84.973L268.539,70.12a8.6,8.6,0,0,0-12.156,0L101.864,224.64a8.6,8.6,0,0,0,12.156,12.155L262.461,88.352,294.5,120.4a8.6,8.6,0,0,0,12.156,0l91.05-91.049V58.409a8.6,8.6,0,0,0,17.191,0V9.455C414.9,9.315,414.887,9.178,414.881,9.039Z" transform="translate(-99.346)"/></g><g transform="translate(44.73 252.113)"><circle class="a" cx="8.595" cy="8.595" r="8.595"/></g></g><g transform="translate(-718.859 1759.077)"><g transform="translate(53.738 130.512)"><g transform="translate(0)"><path class="a" d="M371.914,144.849h7.677V160.2h-7.677a15.354,15.354,0,0,0,0,30.709h7.677v15.354h-7.677a30.708,30.708,0,0,1,0-61.417Z" transform="translate(-341.206 -144.849)"/></g></g><g transform="translate(245.666 130.512)"><g transform="translate(0)"><path class="a" d="M135.871,160.2h-7.677V144.849h7.677a30.708,30.708,0,1,1,0,61.417h-7.677V190.912h7.677a15.354,15.354,0,0,0,0-30.709Z" transform="translate(-128.194 -144.849)"/></g></g><g transform="translate(161.225 143.755)"><path class="a" d="M243.292,207.72l-12.567-43.951,14.763-4.222,15.354,53.739a7.677,7.677,0,0,1-7.378,9.788H230.441V207.72Z" transform="translate(-230.441 -159.547)"/></g><g transform="translate(76.778 84.45)"><g transform="translate(0)"><path class="a" d="M155.037,143.205l30.709-46.062a7.687,7.687,0,0,1,6.387-3.417H330.319A7.68,7.68,0,0,1,338,101.4v89.829a135.447,135.447,0,0,1-17.012,65.592A85.943,85.943,0,0,1,245.9,301.006h-.046a85.94,85.94,0,0,1-75.089-44.181,135.569,135.569,0,0,1-17.012-65.6V147.465A7.7,7.7,0,0,1,155.037,143.205ZM169.1,191.217a120.151,120.151,0,0,0,15.078,58.153,70.6,70.6,0,0,0,61.677,36.281h.031a70.577,70.577,0,0,0,61.669-36.281,120.1,120.1,0,0,0,15.078-58.146V109.08H196.239l-27.139,40.7v41.433Z" transform="translate(-153.748 -93.727)"/></g></g><g transform="translate(132.759 209.524)"><path class="a" d="M249.815,232.541a44.529,44.529,0,0,0,31.653,13.113h8.982v15.354h-8.982a59.807,59.807,0,0,1-42.508-17.6Z" transform="translate(-238.96 -232.541)"/></g><g transform="translate(199.572 138.189)"><circle class="a" cx="15.354" cy="15.354" r="15.354"/></g><g transform="translate(107.447 138.189)"><g transform="translate(0)"><circle class="a" cx="15.354" cy="15.354" r="15.354"/></g></g><g transform="translate(67.244 0)"><g transform="translate(0 0)"><path class="a" d="M143.6,62.907a39.879,39.879,0,0,1,26.064-16.3c.476-.077.936-.146,1.413-.207a41.358,41.358,0,0,1,37.234-23.369h86.789L308.177,3.417a7.677,7.677,0,0,1,11.814-1.167l7.677,7.677a62.028,62.028,0,0,1,0,87.626L316.82,86.682a46.6,46.6,0,0,0-.007-65.9l-1.06-1.051L305.589,34.969a7.687,7.687,0,0,1-6.387,3.417H208.321a26.043,26.043,0,0,0-24.674,17.788,7.664,7.664,0,0,1-7.278,5.243h-.015a20.38,20.38,0,0,0-4.146.345,24.8,24.8,0,0,0-20.352,28.566l9.059,54.276-15.147,2.526L136.7,92.853A39.86,39.86,0,0,1,143.6,62.907Z" transform="translate(-136.134 0.001)"/></g></g><g transform="translate(207.28 268.697)"><path class="a" d="M83.906,298.216v31.66l55.213,7.331a69.323,69.323,0,0,1,59.942,68.487v84.447H183.707V405.686a53.911,53.911,0,0,0-46.615-53.264l-61.876-8.215a7.675,7.675,0,0,1-6.664-7.608V298.215H83.906Z" transform="translate(-68.552 -298.215)"/></g><g transform="translate(0 268.706)"><g transform="translate(0)"><path class="a" d="M358.553,337.217l55.205-7.332v-31.66h15.354V336.61a7.675,7.675,0,0,1-6.664,7.608l-61.869,8.214A53.9,53.9,0,0,0,313.957,405.7v84.447H298.6V405.7A69.324,69.324,0,0,1,358.553,337.217Z" transform="translate(-298.603 -298.225)"/></g></g><g transform="translate(260.989 399.208)"><g transform="translate(0)"><rect class="a" width="15.354" height="61.416"/></g></g><g transform="translate(61.385 399.208)"><g transform="translate(0)"><rect class="a" width="15.354" height="61.416"/></g></g><g transform="translate(164.643 305.234)"><g transform="translate(0)"><path class="a" d="M188.085,364.944l37,24.666,12.713-50.845,14.894,3.716L237.334,403.9a7.682,7.682,0,0,1-11.7,4.53l-46.062-30.709Z" transform="translate(-179.572 -338.765)"/></g></g><g transform="translate(111.348 300.42)"><path class="a" d="M199.747,333.423l49.932,28.535,49.932-28.535,7.615,13.327-53.739,30.709a7.66,7.66,0,0,1-7.615,0L192.132,346.75Z" transform="translate(-192.132 -333.423)"/></g><g transform="translate(100.047 305.226)"><path class="a" d="M266.158,338.756,278.871,389.6l37-24.666,8.514,12.775-46.062,30.708a7.705,7.705,0,0,1-4.261,1.289,7.415,7.415,0,0,1-2.756-.522,7.664,7.664,0,0,1-4.675-5.3l-15.354-61.416Z" transform="translate(-251.272 -338.756)"/></g><g transform="translate(176.577 350.712)"><g transform="translate(0)"><path class="a" d="M222.348,412.271l7.677-23.031,14.563,4.859-7.17,21.511,7.532,82.843-15.293,1.4L221.986,415.4A7.728,7.728,0,0,1,222.348,412.271Z" transform="translate(-221.954 -389.24)"/></g></g><g transform="translate(138.24 350.721)"><g transform="translate(0)"><path class="a" d="M272.045,415.619l-7.17-21.511,14.556-4.859,7.677,23.031a7.821,7.821,0,0,1,.36,3.125l-7.677,84.448-15.278-1.389Z" transform="translate(-264.514 -389.249)"/></g></g><g transform="translate(153.51 368.5)"><rect class="a" width="30.708" height="15.354"/></g></g><g transform="translate(-409.139 815.588)"><g transform="translate(0 490.498)"><circle class="a" cx="10.093" cy="10.093" r="10.093"/></g><g transform="translate(257.808 234.543)"><circle class="a" cx="10.073" cy="10.073" r="10.073"/></g><g transform="translate(326.62 104.365)"><path class="a" d="M398.718,118.073a42.852,42.852,0,1,0,0,60.631A42.587,42.587,0,0,0,398.718,118.073Zm-14.243,46.386a22.728,22.728,0,1,1,0-32.142A22.755,22.755,0,0,1,384.475,164.459Z" transform="translate(-325.551 -105.516)"/></g><g transform="translate(32.456 380.368)"><path class="a" d="M125.714,411.551a10.073,10.073,0,0,0-13.506,4.527l-12,24.094a33.241,33.241,0,0,1-27.386,18.279l-13.954.955a5.97,5.97,0,0,1-6.362-6.363l.955-13.953A33.247,33.247,0,0,1,71.744,411.7l24.093-12a10.072,10.072,0,1,0-8.979-18.033l-24.093,12a53.464,53.464,0,0,0-29.4,44.042l-.955,13.952a26.114,26.114,0,0,0,26.05,27.9c.593,0,1.19-.02,1.786-.061l13.954-.955a53.457,53.457,0,0,0,44.042-29.4l12-24.093A10.072,10.072,0,0,0,125.714,411.551Z" transform="translate(-32.35 -380.616)"/></g><g transform="translate(0.018 0)"><path class="a" d="M506.727,8.2a23.322,23.322,0,0,0-17.851-6.661l-9.379.6A303.909,303.909,0,0,0,263.576,113.507L241.5,140.685l-57.772-1.7c-.1,0-.2,0-.295,0A170.414,170.414,0,0,0,62.14,189.225L2.969,248.4a10.072,10.072,0,0,0,6.606,17.181l125.254,6.435-5.107,6.288a10.072,10.072,0,0,0-1.029,11.164q2.944,5.412,6.164,10.652l-29.7,35.262a10.078,10.078,0,0,0-1.4,10.8,131.154,131.154,0,0,0,62.969,62.97,10.073,10.073,0,0,0,10.655-1.282c6.4-5.191,13.776-11.348,20.911-17.3,5.086-4.244,10.289-8.585,15.152-12.588q4.354,2.62,8.824,5.063a10.07,10.07,0,0,0,10.988-.89l6.865-5.327L246.578,502.6a10.07,10.07,0,0,0,17.18,6.606l59.173-59.173a170.408,170.408,0,0,0,50.24-121.293V273.567l23.343-18.114a302.7,302.7,0,0,0,116.894-224.6l.24-4.9A23.338,23.338,0,0,0,506.727,8.2ZM33.232,246.624l43.153-43.153a150.405,150.405,0,0,1,106.9-44.341l42.223,1.24-74.955,92.282ZM185.38,375.1c-5.258,4.386-10.649,8.885-15.651,13a110.655,110.655,0,0,1-44.876-44.835L146.6,317.443a233.525,233.525,0,0,0,21.548,25.007l.018.017.006.007.009.008a233.535,233.535,0,0,0,27.732,23.839C192.44,369.2,188.882,372.174,185.38,375.1ZM353.03,328.742A150.4,150.4,0,0,1,308.689,435.79l-43.153,43.153-6.022-117.175L353.029,289.2v39.541ZM493.291,29.872A282.579,282.579,0,0,1,384.167,239.538L226.191,362.128A213.291,213.291,0,0,1,189.7,335.193l53.26-53.26a10.073,10.073,0,0,0-14.246-14.246l-53.21,53.21a213.26,213.26,0,0,1-25.824-35.219l129.53-159.471A283.7,283.7,0,0,1,480.779,22.245l9.379-.6a3.175,3.175,0,0,1,3.374,3.324Z" transform="translate(-0.018 -1.492)"/></g></g><g transform="translate(1657.443 2748.793)"><path class="a" d="M78.543,135.249l72.98-100.892a7.8,7.8,0,0,0-10.889-10.889l-100.907,73a27.775,27.775,0,1,0,38.817,38.777Z" transform="translate(182.159 149.484)"/><path class="a" d="M260.011,152.491c-.078-.164-.078-.335-.164-.5s-.242-.242-.343-.39a211.9,211.9,0,0,0-27.787-37.484l16.735-16.735,11.021,11.021,33.064-33.064L259.473,42.269,226.4,75.341,237.43,86.363,220.7,103.1a211.655,211.655,0,0,0-37.484-27.8c-.148-.1-.234-.249-.39-.343s-.335-.086-.5-.171a208.981,208.981,0,0,0-80.065-26.532V38.972H113.95A19.486,19.486,0,1,0,113.934,0H43.784a19.486,19.486,0,0,0,0,38.972H55.476v9.01a214.386,214.386,0,0,0-25.129,4.17A7.793,7.793,0,0,0,33.83,67.344a198.092,198.092,0,0,1,22.292-3.78l7.724-.585c2.611-.195,4.949-.335,7.21-.444h0v15.41a7.794,7.794,0,1,0,15.589,0V62.59a193.343,193.343,0,0,1,81.5,22.175L160.46,98.078a7.794,7.794,0,1,0,13.5,7.794l7.662-13.282A196.372,196.372,0,0,1,242.2,153.169l-13.274,7.662a7.8,7.8,0,0,0,7.818,13.5l13.305-7.685a193.453,193.453,0,0,1,22.206,82.77H256.862a7.795,7.795,0,0,0,0,15.589h15.394a193.453,193.453,0,0,1-22.206,82.77l-13.305-7.685a7.794,7.794,0,1,0-7.795,13.5l13.274,7.662a196.374,196.374,0,0,1-60.579,60.579l-7.662-13.274a7.794,7.794,0,1,0-13.5,7.794l7.685,13.305a193.343,193.343,0,0,1-81.5,22.175v-15.34a7.794,7.794,0,0,0-15.589,0v15.4a196.692,196.692,0,0,1-37.226-4.809,7.793,7.793,0,1,0-3.484,15.191,210.619,210.619,0,0,0,47.219,5.394c.382,0,.748-.023,1.13-.031.055,0,.094.031.14.031.062,0,.117-.039.179-.039a209.089,209.089,0,0,0,103.035-27.85,6.622,6.622,0,0,0,.733-.3c.156-.094.242-.242.39-.343a211.988,211.988,0,0,0,76.176-76.082,7.375,7.375,0,0,0,.468-.608c.094-.164.086-.335.164-.5a209.638,209.638,0,0,0,.008-209.453Z" transform="translate(154.975 0)"/><path class="a" d="M69.854,13H30.882a15.589,15.589,0,0,0,0,31.178H69.854a15.589,15.589,0,0,0,0-31.178Z" transform="translate(93.83 88.328)"/><path class="a" d="M103.827,20H25.882a15.589,15.589,0,1,0,0,31.178h77.945a15.589,15.589,0,1,0,0-31.178Z" transform="translate(59.857 135.89)"/><path class="a" d="M137.8,27H20.882a15.589,15.589,0,0,0,0,31.178H137.8A15.589,15.589,0,1,0,137.8,27Z" transform="translate(25.885 183.451)"/><path class="a" d="M164.977,34H16.882a15.589,15.589,0,0,0,0,31.178h148.1a15.589,15.589,0,0,0,0-31.178Z" transform="translate(-1.293 231.012)"/><path class="a" d="M124.21,41H22.882a15.589,15.589,0,0,0,0,31.178H124.21a15.589,15.589,0,0,0,0-31.178Z" transform="translate(39.474 278.574)"/><path class="a" d="M83.443,48H28.882a15.589,15.589,0,0,0,0,31.178H83.443a15.589,15.589,0,0,0,0-31.178Z" transform="translate(80.241 326.135)"/></g><g transform="translate(1657.442 766.473)"><path class="a" d="M261.085,307.5H231.853a19.24,19.24,0,1,1,0-38.481H283.3a12.756,12.756,0,1,0,0-25.512h-24.13V225.756a12.756,12.756,0,1,0-25.512,0v17.752h-1.807a44.752,44.752,0,1,0,0,89.5h29.233a19.24,19.24,0,0,1,0,38.481H208.679a12.756,12.756,0,0,0,0,25.512h25.087v18.177a12.756,12.756,0,0,0,25.512,0V397.006h2.445a44.755,44.755,0,0,0-.638-89.5Z" transform="translate(-24.248 13.42)"/><path class="a" d="M447.834,292.007a365.648,365.648,0,0,0-55.276-88.655,411.814,411.814,0,0,0-70.8-67.288L375.975,35.5a12.586,12.586,0,0,0-2.339-15.095C359.6,6.7,344.722,0,328.139,0c-15.2,0-29.126,5.74-41.245,10.843-9.567,3.933-18.6,7.76-25.937,7.76A16.147,16.147,0,0,1,254.9,17.54C229.6,8.291,210.146,2.551,191.331,2.551c-23.811,0-44.115,9.567-63.993,29.977a12.834,12.834,0,0,0-1.488,15.945l58.465,88.336a418.705,418.705,0,0,0-69.839,66.544C91.2,231.31,72.593,261.18,59.2,292.007A301.454,301.454,0,0,0,33.9,412.339,99.126,99.126,0,0,0,132.866,511.3h241.3a99.126,99.126,0,0,0,98.966-98.966A301.453,301.453,0,0,0,447.834,292.007ZM153.063,43.158c12.331-10.63,24.13-15.307,38.268-15.307,15.095,0,32.1,5.1,54.745,13.5A43.192,43.192,0,0,0,260.851,43.9c12.437,0,24.343-4.89,35.717-9.673,10.949-4.571,21.366-8.929,31.465-8.929,4.89,0,11.8.85,20.516,7.016l-51.024,94.82H208.658Zm221.1,442.635h-241.3a73.539,73.539,0,0,1-73.454-73.454c0-68.139,24.981-132.769,74.091-192.085a390.213,390.213,0,0,1,72.178-67.607h95.458c9.673,6.7,41.138,30.083,72.178,67.607,49.217,59.316,74.091,123.84,74.091,192.085A73.222,73.222,0,0,1,374.168,485.793Z" transform="translate(-33.9 0)"/></g><g transform="translate(2003.634 1861.906)"><g transform="translate(0 0)"><path class="a" d="M466.29,106.916H372.643V54.065a10.638,10.638,0,0,0-10.637-10.637H139.619a10.638,10.638,0,0,0-10.637,10.637v52.852H35.335A35.374,35.374,0,0,0,0,142.252V311.587a35.376,35.376,0,0,0,35.335,35.336h93.647v102.4a10.638,10.638,0,0,0,10.637,10.637H362.007a10.638,10.638,0,0,0,10.637-10.637v-102.4h93.647a35.376,35.376,0,0,0,35.335-35.336V142.252A35.378,35.378,0,0,0,466.29,106.916Zm-93.648,21.273h25.372v29.769H372.642ZM150.255,64.7H351.369v93.257H150.255ZM103.61,128.19h25.372v29.769H103.61V128.19ZM351.37,438.683H150.255V298.6H351.369V438.683Zm128.983-127.1h0a14.078,14.078,0,0,1-14.061,14.063H372.643V298.6h19.4a10.637,10.637,0,1,0,0-21.274H109.58a10.637,10.637,0,1,0,0,21.274h19.4V325.65H35.335a14.078,14.078,0,0,1-14.061-14.063V142.252a14.079,14.079,0,0,1,14.061-14.063h47v40.405a10.638,10.638,0,0,0,10.637,10.637H408.652a10.638,10.638,0,0,0,10.637-10.637V128.189h47a14.079,14.079,0,0,1,14.062,14.063Z" transform="translate(0 -43.428)"/></g><g transform="translate(54.079 158.944)"><circle class="a" cx="13.326" cy="13.326" r="13.326"/></g><g transform="translate(187.435 336.077)"><path class="a" d="M251.6,386.456H201.949a10.637,10.637,0,0,0,0,21.274H251.6a10.637,10.637,0,1,0,0-21.274Z" transform="translate(-191.312 -386.456)"/></g><g transform="translate(187.435 282.218)"><path class="a" d="M307.429,331.483H201.949a10.637,10.637,0,1,0,0,21.274h105.48a10.637,10.637,0,0,0,0-21.274Z" transform="translate(-191.312 -331.483)"/></g></g><g transform="translate(429.991 1618.721)"><g transform="translate(0 0)"><path class="a" d="M844.24,26H52.546A52.606,52.606,0,0,0,0,78.546v525.46a52.606,52.606,0,0,0,52.546,52.546h308.27v71.823a87.837,87.837,0,0,0-68.3,68.3H238.209a17.515,17.515,0,1,0,0,35.031H658.577a17.515,17.515,0,1,0,0-35.031H604.269a87.837,87.837,0,0,0-68.3-68.3V656.552H844.24a52.606,52.606,0,0,0,52.546-52.546V78.546A52.606,52.606,0,0,0,844.24,26ZM567.988,796.675H328.8a52.629,52.629,0,0,1,49.533-35.031H518.454A52.63,52.63,0,0,1,567.988,796.675ZM395.847,726.614V656.552H500.939v70.061ZM861.755,604.006a17.535,17.535,0,0,1-17.515,17.515H52.546a17.535,17.535,0,0,1-17.515-17.515V514.678H861.755Zm0-124.359H35.031V78.546A17.535,17.535,0,0,1,52.546,61.031H844.24a17.535,17.535,0,0,1,17.515,17.515Z" transform="translate(0 -26)"/></g><g transform="translate(397.598 525.46)"><path class="a" d="M314.577,326H244.515a17.515,17.515,0,1,0,0,35.031h70.061a17.515,17.515,0,1,0,0-35.031Z" transform="translate(-227 -326)"/></g><g transform="translate(184.789 68.82)"><path class="a" d="M613.444,65.291a52.581,52.581,0,0,0-47.43,75.206l-140.1,140.095a52.741,52.741,0,0,0-45.318,0l-35-35a52.546,52.546,0,1,0-94.86,0L180.707,315.62a52.443,52.443,0,1,0,24.775,24.765l70.028-70.026a52.73,52.73,0,0,0,45.316,0l35,35a52.546,52.546,0,1,0,94.87,0l140.091-140.09a52.554,52.554,0,1,0,22.658-99.976Zm-455.4,315.274a17.515,17.515,0,1,1,17.515-17.515A17.535,17.535,0,0,1,158.045,380.565ZM298.168,240.443a17.515,17.515,0,1,1,17.515-17.515A17.519,17.519,0,0,1,298.168,240.443ZM403.26,345.535a17.515,17.515,0,1,1,17.515-17.515A17.535,17.535,0,0,1,403.26,345.535ZM613.444,135.351a17.515,17.515,0,1,1,17.515-17.515A17.52,17.52,0,0,1,613.444,135.351Z" transform="translate(-105.501 -65.291)"/></g></g></g></g></svg>